<mxfile host="app.diagrams.net" modified="2021-01-14T02:40:30.020Z" agent="5.0 (Windows NT 10.0; Win64; x64) AppleWebKit/537.36 (KHTML, like Gecko) Chrome/87.0.4280.141 Safari/537.36" etag="nVBA6UGVwyUpnPwSNtnV" version="14.1.9" type="github">
  <diagram id="kgpKYQtTHZ0yAKxKKP6v" name="Page-1">
    <mxGraphModel dx="1822" dy="834" grid="1" gridSize="10" guides="1" tooltips="1" connect="1" arrows="1" fold="1" page="0" pageScale="1" pageWidth="1100" pageHeight="850" math="0" shadow="0">
      <root>
        <mxCell id="0" />
        <mxCell id="1" parent="0" />
        <mxCell id="3nuBFxr9cyL0pnOWT2aG-1" value="Engineering Workflow - Feature using Release Flow (ADOps)" style="shape=table;childLayout=tableLayout;rowLines=0;columnLines=0;startSize=40;html=1;whiteSpace=wrap;collapsible=0;recursiveResize=0;expand=0;fontStyle=1" parent="1" vertex="1">
          <mxGeometry x="-140" y="60" width="2850" height="790" as="geometry" />
        </mxCell>
        <mxCell id="3nuBFxr9cyL0pnOWT2aG-2" value="" style="edgeStyle=orthogonalEdgeStyle;rounded=0;orthogonalLoop=1;jettySize=auto;html=1;" parent="3nuBFxr9cyL0pnOWT2aG-1" source="3nuBFxr9cyL0pnOWT2aG-7" target="3nuBFxr9cyL0pnOWT2aG-17" edge="1">
          <mxGeometry relative="1" as="geometry" />
        </mxCell>
        <mxCell id="3nuBFxr9cyL0pnOWT2aG-3" value="CI/CD-Access Only" style="swimlane;horizontal=0;points=[[0,0.5],[1,0.5]];portConstraint=eastwest;startSize=40;html=1;whiteSpace=wrap;collapsible=0;recursiveResize=0;expand=0;" parent="3nuBFxr9cyL0pnOWT2aG-1" vertex="1">
          <mxGeometry y="40" width="2850" height="170" as="geometry" />
        </mxCell>
        <mxCell id="3nuBFxr9cyL0pnOWT2aG-4" value="Feature Start" style="swimlane;connectable=0;startSize=40;html=1;whiteSpace=wrap;collapsible=0;recursiveResize=0;expand=0;" parent="3nuBFxr9cyL0pnOWT2aG-3" vertex="1">
          <mxGeometry x="40" width="130" height="170" as="geometry" />
        </mxCell>
        <mxCell id="3nuBFxr9cyL0pnOWT2aG-8" value="Feature In Progress/Code Review" style="swimlane;connectable=0;startSize=40;html=1;whiteSpace=wrap;collapsible=0;recursiveResize=0;expand=0;" parent="3nuBFxr9cyL0pnOWT2aG-3" vertex="1">
          <mxGeometry x="170" width="800" height="170" as="geometry" />
        </mxCell>
        <mxCell id="3nuBFxr9cyL0pnOWT2aG-10" value="Run PR&lt;br&gt;CI Flow" style="rounded=0;whiteSpace=wrap;html=1;" parent="3nuBFxr9cyL0pnOWT2aG-8" vertex="1">
          <mxGeometry x="160" y="100" width="90" height="40" as="geometry" />
        </mxCell>
        <mxCell id="cpO45eYIbNJ76o1VQ8K9-133" value="Run Dev Env.&lt;br&gt;CD Flow" style="rounded=0;whiteSpace=wrap;html=1;" vertex="1" parent="3nuBFxr9cyL0pnOWT2aG-8">
          <mxGeometry x="580" y="100" width="90" height="40" as="geometry" />
        </mxCell>
        <mxCell id="cpO45eYIbNJ76o1VQ8K9-141" value="Feature in QA Ready/QA In Progress" style="swimlane;connectable=0;startSize=40;html=1;whiteSpace=wrap;collapsible=0;recursiveResize=0;expand=0;" vertex="1" parent="3nuBFxr9cyL0pnOWT2aG-3">
          <mxGeometry x="970" width="1040" height="170" as="geometry" />
        </mxCell>
        <mxCell id="cpO45eYIbNJ76o1VQ8K9-155" value="Run PR&lt;br&gt;CI Flow" style="rounded=0;whiteSpace=wrap;html=1;" vertex="1" parent="cpO45eYIbNJ76o1VQ8K9-141">
          <mxGeometry x="130" y="100" width="90" height="40" as="geometry" />
        </mxCell>
        <mxCell id="cpO45eYIbNJ76o1VQ8K9-242" value="Run QA Env.&lt;br&gt;CD Flow" style="rounded=0;whiteSpace=wrap;html=1;" vertex="1" parent="cpO45eYIbNJ76o1VQ8K9-141">
          <mxGeometry x="570" y="100" width="90" height="40" as="geometry" />
        </mxCell>
        <mxCell id="3nuBFxr9cyL0pnOWT2aG-11" value="Release Ready" style="swimlane;connectable=0;startSize=40;html=1;whiteSpace=wrap;collapsible=0;recursiveResize=0;expand=0;" parent="3nuBFxr9cyL0pnOWT2aG-3" vertex="1">
          <mxGeometry x="2010" width="140" height="170" as="geometry" />
        </mxCell>
        <mxCell id="3nuBFxr9cyL0pnOWT2aG-13" value="Run STG Env.&lt;br&gt;CD Flow" style="rounded=0;whiteSpace=wrap;html=1;" parent="3nuBFxr9cyL0pnOWT2aG-11" vertex="1">
          <mxGeometry x="20" y="100" width="90" height="40" as="geometry" />
        </mxCell>
        <mxCell id="cpO45eYIbNJ76o1VQ8K9-251" value="Prod Deploy" style="swimlane;connectable=0;startSize=40;html=1;whiteSpace=wrap;collapsible=0;recursiveResize=0;expand=0;" vertex="1" parent="3nuBFxr9cyL0pnOWT2aG-3">
          <mxGeometry x="2150" width="700" height="170" as="geometry" />
        </mxCell>
        <mxCell id="cpO45eYIbNJ76o1VQ8K9-262" value="Run Prod Env.&lt;br&gt;CD Flow" style="rounded=0;whiteSpace=wrap;html=1;" vertex="1" parent="cpO45eYIbNJ76o1VQ8K9-251">
          <mxGeometry x="30" y="100" width="90" height="40" as="geometry" />
        </mxCell>
        <mxCell id="cpO45eYIbNJ76o1VQ8K9-278" style="edgeStyle=orthogonalEdgeStyle;rounded=0;orthogonalLoop=1;jettySize=auto;html=1;exitX=1;exitY=0.5;exitDx=0;exitDy=0;entryX=0;entryY=0.5;entryDx=0;entryDy=0;dashed=1;" edge="1" parent="cpO45eYIbNJ76o1VQ8K9-251" source="cpO45eYIbNJ76o1VQ8K9-273" target="cpO45eYIbNJ76o1VQ8K9-277">
          <mxGeometry relative="1" as="geometry" />
        </mxCell>
        <mxCell id="cpO45eYIbNJ76o1VQ8K9-273" value="Approve?&lt;br&gt;Rollback?" style="shape=process;whiteSpace=wrap;html=1;backgroundOutline=1;" vertex="1" parent="cpO45eYIbNJ76o1VQ8K9-251">
          <mxGeometry x="280" y="95" width="90" height="40" as="geometry" />
        </mxCell>
        <mxCell id="cpO45eYIbNJ76o1VQ8K9-277" value="Run Prod Env.&lt;br&gt;Roll back CD Flow" style="rounded=0;whiteSpace=wrap;html=1;" vertex="1" parent="cpO45eYIbNJ76o1VQ8K9-251">
          <mxGeometry x="420" y="70" width="90" height="90" as="geometry" />
        </mxCell>
        <mxCell id="3nuBFxr9cyL0pnOWT2aG-15" value="Developer" style="swimlane;horizontal=0;points=[[0,0.5],[1,0.5]];portConstraint=eastwest;startSize=40;html=1;whiteSpace=wrap;collapsible=0;recursiveResize=0;expand=0;" parent="3nuBFxr9cyL0pnOWT2aG-1" vertex="1">
          <mxGeometry y="210" width="2850" height="90" as="geometry" />
        </mxCell>
        <mxCell id="3nuBFxr9cyL0pnOWT2aG-16" value="" style="swimlane;connectable=0;startSize=0;html=1;whiteSpace=wrap;collapsible=0;recursiveResize=0;expand=0;" parent="3nuBFxr9cyL0pnOWT2aG-15" vertex="1">
          <mxGeometry x="40" width="130" height="90" as="geometry" />
        </mxCell>
        <mxCell id="3nuBFxr9cyL0pnOWT2aG-17" value="Branch off master using feature/*" style="rounded=0;whiteSpace=wrap;html=1;" parent="3nuBFxr9cyL0pnOWT2aG-16" vertex="1">
          <mxGeometry x="20" y="25" width="90" height="40" as="geometry" />
        </mxCell>
        <mxCell id="3nuBFxr9cyL0pnOWT2aG-18" value="" style="swimlane;connectable=0;startSize=0;html=1;whiteSpace=wrap;collapsible=0;recursiveResize=0;expand=0;" parent="3nuBFxr9cyL0pnOWT2aG-15" vertex="1">
          <mxGeometry x="170" width="800" height="90" as="geometry" />
        </mxCell>
        <mxCell id="cpO45eYIbNJ76o1VQ8K9-151" style="edgeStyle=orthogonalEdgeStyle;rounded=0;orthogonalLoop=1;jettySize=auto;html=1;exitX=1;exitY=0.5;exitDx=0;exitDy=0;entryX=0;entryY=0.5;entryDx=0;entryDy=0;" edge="1" parent="3nuBFxr9cyL0pnOWT2aG-18" source="3nuBFxr9cyL0pnOWT2aG-9" target="cpO45eYIbNJ76o1VQ8K9-7">
          <mxGeometry relative="1" as="geometry" />
        </mxCell>
        <mxCell id="3nuBFxr9cyL0pnOWT2aG-9" value="Create Code&lt;br&gt;w/Specs" style="rounded=0;whiteSpace=wrap;html=1;" parent="3nuBFxr9cyL0pnOWT2aG-18" vertex="1">
          <mxGeometry x="20" y="25" width="90" height="40" as="geometry" />
        </mxCell>
        <mxCell id="cpO45eYIbNJ76o1VQ8K9-7" value="Create Pull Request (PR)" style="shape=document;whiteSpace=wrap;html=1;boundedLbl=1;" vertex="1" parent="3nuBFxr9cyL0pnOWT2aG-18">
          <mxGeometry x="160" y="15" width="90" height="60" as="geometry" />
        </mxCell>
        <mxCell id="cpO45eYIbNJ76o1VQ8K9-130" value="Update Code" style="rounded=0;whiteSpace=wrap;html=1;" vertex="1" parent="3nuBFxr9cyL0pnOWT2aG-18">
          <mxGeometry x="390" y="20" width="90" height="40" as="geometry" />
        </mxCell>
        <mxCell id="cpO45eYIbNJ76o1VQ8K9-146" value="Feature Ready For QA, Ticket in QA Ready" style="shape=document;whiteSpace=wrap;html=1;boundedLbl=1;" vertex="1" parent="3nuBFxr9cyL0pnOWT2aG-18">
          <mxGeometry x="690" y="15" width="90" height="60" as="geometry" />
        </mxCell>
        <mxCell id="cpO45eYIbNJ76o1VQ8K9-142" style="swimlane;connectable=0;startSize=0;html=1;whiteSpace=wrap;collapsible=0;recursiveResize=0;expand=0;" vertex="1" parent="3nuBFxr9cyL0pnOWT2aG-15">
          <mxGeometry x="970" width="1040" height="90" as="geometry" />
        </mxCell>
        <mxCell id="cpO45eYIbNJ76o1VQ8K9-156" value="Review PR" style="shape=document;whiteSpace=wrap;html=1;boundedLbl=1;" vertex="1" parent="cpO45eYIbNJ76o1VQ8K9-142">
          <mxGeometry x="265" y="15" width="80" height="60" as="geometry" />
        </mxCell>
        <mxCell id="cpO45eYIbNJ76o1VQ8K9-163" value="Approve PR" style="shape=process;whiteSpace=wrap;html=1;backgroundOutline=1;" vertex="1" parent="cpO45eYIbNJ76o1VQ8K9-142">
          <mxGeometry x="430" y="25" width="90" height="40" as="geometry" />
        </mxCell>
        <mxCell id="cpO45eYIbNJ76o1VQ8K9-162" style="edgeStyle=orthogonalEdgeStyle;rounded=0;orthogonalLoop=1;jettySize=auto;html=1;exitX=1;exitY=0.5;exitDx=0;exitDy=0;entryX=0;entryY=0.5;entryDx=0;entryDy=0;" edge="1" parent="cpO45eYIbNJ76o1VQ8K9-142" target="cpO45eYIbNJ76o1VQ8K9-163" source="cpO45eYIbNJ76o1VQ8K9-156">
          <mxGeometry relative="1" as="geometry">
            <mxPoint x="440" y="135" as="sourcePoint" />
          </mxGeometry>
        </mxCell>
        <mxCell id="cpO45eYIbNJ76o1VQ8K9-249" value="Create Release Branch" style="rounded=0;whiteSpace=wrap;html=1;" vertex="1" parent="cpO45eYIbNJ76o1VQ8K9-142">
          <mxGeometry x="860" y="25" width="90" height="40" as="geometry" />
        </mxCell>
        <mxCell id="3nuBFxr9cyL0pnOWT2aG-23" value="" style="swimlane;connectable=0;startSize=0;html=1;whiteSpace=wrap;collapsible=0;recursiveResize=0;expand=0;" parent="3nuBFxr9cyL0pnOWT2aG-15" vertex="1">
          <mxGeometry x="2010" width="140" height="90" as="geometry" />
        </mxCell>
        <mxCell id="cpO45eYIbNJ76o1VQ8K9-252" style="swimlane;connectable=0;startSize=0;html=1;whiteSpace=wrap;collapsible=0;recursiveResize=0;expand=0;" vertex="1" parent="3nuBFxr9cyL0pnOWT2aG-15">
          <mxGeometry x="2150" width="700" height="90" as="geometry" />
        </mxCell>
        <mxCell id="cpO45eYIbNJ76o1VQ8K9-268" value="Manual Validations" style="rounded=0;whiteSpace=wrap;html=1;" vertex="1" parent="cpO45eYIbNJ76o1VQ8K9-252">
          <mxGeometry x="170" y="20" width="90" height="50" as="geometry" />
        </mxCell>
        <mxCell id="cpO45eYIbNJ76o1VQ8K9-150" style="edgeStyle=orthogonalEdgeStyle;rounded=0;orthogonalLoop=1;jettySize=auto;html=1;exitX=1;exitY=0.5;exitDx=0;exitDy=0;entryX=0;entryY=0.5;entryDx=0;entryDy=0;" edge="1" parent="3nuBFxr9cyL0pnOWT2aG-15" source="3nuBFxr9cyL0pnOWT2aG-17" target="3nuBFxr9cyL0pnOWT2aG-9">
          <mxGeometry relative="1" as="geometry" />
        </mxCell>
        <mxCell id="3nuBFxr9cyL0pnOWT2aG-27" value="" style="edgeStyle=orthogonalEdgeStyle;rounded=0;orthogonalLoop=1;jettySize=auto;html=1;entryX=0.5;entryY=0;entryDx=0;entryDy=0;" parent="3nuBFxr9cyL0pnOWT2aG-1" source="3nuBFxr9cyL0pnOWT2aG-10" target="3nuBFxr9cyL0pnOWT2aG-21" edge="1">
          <mxGeometry relative="1" as="geometry" />
        </mxCell>
        <mxCell id="cpO45eYIbNJ76o1VQ8K9-1" value="Developer 2" style="swimlane;horizontal=0;points=[[0,0.5],[1,0.5]];portConstraint=eastwest;startSize=40;html=1;whiteSpace=wrap;collapsible=0;recursiveResize=0;expand=0;" vertex="1" parent="3nuBFxr9cyL0pnOWT2aG-1">
          <mxGeometry y="300" width="2850" height="110" as="geometry" />
        </mxCell>
        <mxCell id="cpO45eYIbNJ76o1VQ8K9-2" value="" style="swimlane;connectable=0;startSize=0;html=1;whiteSpace=wrap;collapsible=0;recursiveResize=0;expand=0;" vertex="1" parent="cpO45eYIbNJ76o1VQ8K9-1">
          <mxGeometry x="40" width="130" height="110" as="geometry" />
        </mxCell>
        <mxCell id="cpO45eYIbNJ76o1VQ8K9-4" value="" style="swimlane;connectable=0;startSize=0;html=1;whiteSpace=wrap;collapsible=0;recursiveResize=0;expand=0;" vertex="1" parent="cpO45eYIbNJ76o1VQ8K9-1">
          <mxGeometry x="170" width="800" height="110" as="geometry" />
        </mxCell>
        <mxCell id="cpO45eYIbNJ76o1VQ8K9-5" value="" style="edgeStyle=orthogonalEdgeStyle;rounded=0;orthogonalLoop=1;jettySize=auto;html=1;" edge="1" parent="cpO45eYIbNJ76o1VQ8K9-4" target="cpO45eYIbNJ76o1VQ8K9-8">
          <mxGeometry relative="1" as="geometry">
            <mxPoint x="420" y="40" as="sourcePoint" />
          </mxGeometry>
        </mxCell>
        <mxCell id="cpO45eYIbNJ76o1VQ8K9-131" style="edgeStyle=orthogonalEdgeStyle;rounded=0;orthogonalLoop=1;jettySize=auto;html=1;exitX=1;exitY=0.5;exitDx=0;exitDy=0;entryX=0;entryY=0.5;entryDx=0;entryDy=0;" edge="1" parent="cpO45eYIbNJ76o1VQ8K9-4" source="3nuBFxr9cyL0pnOWT2aG-21" target="3nuBFxr9cyL0pnOWT2aG-22">
          <mxGeometry relative="1" as="geometry" />
        </mxCell>
        <mxCell id="3nuBFxr9cyL0pnOWT2aG-21" value="Review PR" style="shape=document;whiteSpace=wrap;html=1;boundedLbl=1;" parent="cpO45eYIbNJ76o1VQ8K9-4" vertex="1">
          <mxGeometry x="320" y="20" width="80" height="60" as="geometry" />
        </mxCell>
        <mxCell id="3nuBFxr9cyL0pnOWT2aG-22" value="Approve PR" style="shape=process;whiteSpace=wrap;html=1;backgroundOutline=1;" parent="cpO45eYIbNJ76o1VQ8K9-4" vertex="1">
          <mxGeometry x="500" y="30" width="90" height="40" as="geometry" />
        </mxCell>
        <mxCell id="cpO45eYIbNJ76o1VQ8K9-143" style="swimlane;connectable=0;startSize=0;html=1;whiteSpace=wrap;collapsible=0;recursiveResize=0;expand=0;" vertex="1" parent="cpO45eYIbNJ76o1VQ8K9-1">
          <mxGeometry x="970" width="1040" height="110" as="geometry" />
        </mxCell>
        <mxCell id="cpO45eYIbNJ76o1VQ8K9-9" value="" style="swimlane;connectable=0;startSize=0;html=1;whiteSpace=wrap;collapsible=0;recursiveResize=0;expand=0;" vertex="1" parent="cpO45eYIbNJ76o1VQ8K9-1">
          <mxGeometry x="2010" width="140" height="110" as="geometry" />
        </mxCell>
        <mxCell id="cpO45eYIbNJ76o1VQ8K9-253" style="swimlane;connectable=0;startSize=0;html=1;whiteSpace=wrap;collapsible=0;recursiveResize=0;expand=0;" vertex="1" parent="cpO45eYIbNJ76o1VQ8K9-1">
          <mxGeometry x="2150" width="700" height="110" as="geometry" />
        </mxCell>
        <mxCell id="cpO45eYIbNJ76o1VQ8K9-10" value="QA Engineer" style="swimlane;horizontal=0;points=[[0,0.5],[1,0.5]];portConstraint=eastwest;startSize=40;html=1;whiteSpace=wrap;collapsible=0;recursiveResize=0;expand=0;" vertex="1" parent="3nuBFxr9cyL0pnOWT2aG-1">
          <mxGeometry y="410" width="2850" height="80" as="geometry" />
        </mxCell>
        <mxCell id="cpO45eYIbNJ76o1VQ8K9-11" value="" style="swimlane;connectable=0;startSize=0;html=1;whiteSpace=wrap;collapsible=0;recursiveResize=0;expand=0;" vertex="1" parent="cpO45eYIbNJ76o1VQ8K9-10">
          <mxGeometry x="40" width="130" height="80" as="geometry" />
        </mxCell>
        <mxCell id="cpO45eYIbNJ76o1VQ8K9-13" value="" style="swimlane;connectable=0;startSize=0;html=1;whiteSpace=wrap;collapsible=0;recursiveResize=0;expand=0;" vertex="1" parent="cpO45eYIbNJ76o1VQ8K9-10">
          <mxGeometry x="170" width="800" height="80" as="geometry" />
        </mxCell>
        <mxCell id="cpO45eYIbNJ76o1VQ8K9-14" value="" style="edgeStyle=orthogonalEdgeStyle;rounded=0;orthogonalLoop=1;jettySize=auto;html=1;" edge="1" parent="cpO45eYIbNJ76o1VQ8K9-13" source="cpO45eYIbNJ76o1VQ8K9-15" target="cpO45eYIbNJ76o1VQ8K9-17">
          <mxGeometry relative="1" as="geometry" />
        </mxCell>
        <mxCell id="cpO45eYIbNJ76o1VQ8K9-15" value="Accept&lt;br&gt;payment" style="rounded=0;whiteSpace=wrap;html=1;" vertex="1" parent="cpO45eYIbNJ76o1VQ8K9-13">
          <mxGeometry x="330" y="20" width="90" height="40" as="geometry" />
        </mxCell>
        <mxCell id="cpO45eYIbNJ76o1VQ8K9-16" value="Write details&lt;br&gt;on cup" style="shape=document;whiteSpace=wrap;html=1;boundedLbl=1;" vertex="1" parent="cpO45eYIbNJ76o1VQ8K9-13">
          <mxGeometry x="200" y="10" width="90" height="60" as="geometry" />
        </mxCell>
        <mxCell id="cpO45eYIbNJ76o1VQ8K9-17" value="Make latte" style="shape=process;whiteSpace=wrap;html=1;backgroundOutline=1;" vertex="1" parent="cpO45eYIbNJ76o1VQ8K9-13">
          <mxGeometry x="440" y="20" width="90" height="40" as="geometry" />
        </mxCell>
        <mxCell id="cpO45eYIbNJ76o1VQ8K9-144" style="swimlane;connectable=0;startSize=0;html=1;whiteSpace=wrap;collapsible=0;recursiveResize=0;expand=0;" vertex="1" parent="cpO45eYIbNJ76o1VQ8K9-10">
          <mxGeometry x="970" width="1040" height="80" as="geometry" />
        </mxCell>
        <mxCell id="cpO45eYIbNJ76o1VQ8K9-154" style="edgeStyle=orthogonalEdgeStyle;rounded=0;orthogonalLoop=1;jettySize=auto;html=1;exitX=1;exitY=0.5;exitDx=0;exitDy=0;entryX=0;entryY=0.5;entryDx=0;entryDy=0;" edge="1" parent="cpO45eYIbNJ76o1VQ8K9-144" source="cpO45eYIbNJ76o1VQ8K9-147" target="cpO45eYIbNJ76o1VQ8K9-153">
          <mxGeometry relative="1" as="geometry" />
        </mxCell>
        <mxCell id="cpO45eYIbNJ76o1VQ8K9-147" value="Create Test Cases" style="rounded=0;whiteSpace=wrap;html=1;" vertex="1" parent="cpO45eYIbNJ76o1VQ8K9-144">
          <mxGeometry x="15" y="20" width="90" height="40" as="geometry" />
        </mxCell>
        <mxCell id="cpO45eYIbNJ76o1VQ8K9-158" style="edgeStyle=orthogonalEdgeStyle;rounded=0;orthogonalLoop=1;jettySize=auto;html=1;exitX=1;exitY=0.5;exitDx=0;exitDy=0;entryX=0;entryY=0.5;entryDx=0;entryDy=0;" edge="1" parent="cpO45eYIbNJ76o1VQ8K9-144" source="cpO45eYIbNJ76o1VQ8K9-153" target="cpO45eYIbNJ76o1VQ8K9-157">
          <mxGeometry relative="1" as="geometry" />
        </mxCell>
        <mxCell id="cpO45eYIbNJ76o1VQ8K9-153" value="Write Tests (Selenium)" style="rounded=0;whiteSpace=wrap;html=1;" vertex="1" parent="cpO45eYIbNJ76o1VQ8K9-144">
          <mxGeometry x="130" y="20" width="90" height="40" as="geometry" />
        </mxCell>
        <mxCell id="cpO45eYIbNJ76o1VQ8K9-157" value="Create Pull Request (PR)" style="shape=document;whiteSpace=wrap;html=1;boundedLbl=1;" vertex="1" parent="cpO45eYIbNJ76o1VQ8K9-144">
          <mxGeometry x="260" y="10" width="90" height="60" as="geometry" />
        </mxCell>
        <mxCell id="cpO45eYIbNJ76o1VQ8K9-161" value="Update Tests" style="rounded=0;whiteSpace=wrap;html=1;" vertex="1" parent="cpO45eYIbNJ76o1VQ8K9-144">
          <mxGeometry x="430" y="20" width="90" height="40" as="geometry" />
        </mxCell>
        <mxCell id="cpO45eYIbNJ76o1VQ8K9-247" style="edgeStyle=orthogonalEdgeStyle;rounded=0;orthogonalLoop=1;jettySize=auto;html=1;exitX=1;exitY=0.5;exitDx=0;exitDy=0;entryX=0;entryY=0.5;entryDx=0;entryDy=0;" edge="1" parent="cpO45eYIbNJ76o1VQ8K9-144" source="cpO45eYIbNJ76o1VQ8K9-244" target="cpO45eYIbNJ76o1VQ8K9-246">
          <mxGeometry relative="1" as="geometry" />
        </mxCell>
        <mxCell id="cpO45eYIbNJ76o1VQ8K9-244" value="Manual Validations" style="rounded=0;whiteSpace=wrap;html=1;" vertex="1" parent="cpO45eYIbNJ76o1VQ8K9-144">
          <mxGeometry x="710" y="20" width="90" height="40" as="geometry" />
        </mxCell>
        <mxCell id="cpO45eYIbNJ76o1VQ8K9-246" value="Feature Ready For STG, Ticket in Done" style="shape=document;whiteSpace=wrap;html=1;boundedLbl=1;" vertex="1" parent="cpO45eYIbNJ76o1VQ8K9-144">
          <mxGeometry x="860" y="10" width="90" height="60" as="geometry" />
        </mxCell>
        <mxCell id="cpO45eYIbNJ76o1VQ8K9-18" value="" style="swimlane;connectable=0;startSize=0;html=1;whiteSpace=wrap;collapsible=0;recursiveResize=0;expand=0;" vertex="1" parent="cpO45eYIbNJ76o1VQ8K9-10">
          <mxGeometry x="2010" width="140" height="80" as="geometry" />
        </mxCell>
        <mxCell id="cpO45eYIbNJ76o1VQ8K9-254" style="swimlane;connectable=0;startSize=0;html=1;whiteSpace=wrap;collapsible=0;recursiveResize=0;expand=0;" vertex="1" parent="cpO45eYIbNJ76o1VQ8K9-10">
          <mxGeometry x="2150" width="700" height="80" as="geometry" />
        </mxCell>
        <mxCell id="cpO45eYIbNJ76o1VQ8K9-269" value="Manual Validations" style="rounded=0;whiteSpace=wrap;html=1;" vertex="1" parent="cpO45eYIbNJ76o1VQ8K9-254">
          <mxGeometry x="170" y="15" width="90" height="50" as="geometry" />
        </mxCell>
        <mxCell id="cpO45eYIbNJ76o1VQ8K9-19" value="PM" style="swimlane;horizontal=0;points=[[0,0.5],[1,0.5]];portConstraint=eastwest;startSize=40;html=1;whiteSpace=wrap;collapsible=0;recursiveResize=0;expand=0;" vertex="1" parent="3nuBFxr9cyL0pnOWT2aG-1">
          <mxGeometry y="490" width="2850" height="150" as="geometry" />
        </mxCell>
        <mxCell id="cpO45eYIbNJ76o1VQ8K9-20" value="" style="swimlane;connectable=0;startSize=0;html=1;whiteSpace=wrap;collapsible=0;recursiveResize=0;expand=0;" vertex="1" parent="cpO45eYIbNJ76o1VQ8K9-19">
          <mxGeometry x="40" width="130" height="150" as="geometry" />
        </mxCell>
        <mxCell id="3nuBFxr9cyL0pnOWT2aG-6" value="Start" style="rounded=1;whiteSpace=wrap;html=1;arcSize=50;" parent="cpO45eYIbNJ76o1VQ8K9-20" vertex="1">
          <mxGeometry x="20" y="90" width="90" height="40" as="geometry" />
        </mxCell>
        <mxCell id="3nuBFxr9cyL0pnOWT2aG-7" value="Define Feature" style="rounded=0;whiteSpace=wrap;html=1;" parent="cpO45eYIbNJ76o1VQ8K9-20" vertex="1">
          <mxGeometry x="20" y="20" width="90" height="40" as="geometry" />
        </mxCell>
        <mxCell id="3nuBFxr9cyL0pnOWT2aG-5" style="edgeStyle=orthogonalEdgeStyle;rounded=0;orthogonalLoop=1;jettySize=auto;html=1;" parent="cpO45eYIbNJ76o1VQ8K9-20" source="3nuBFxr9cyL0pnOWT2aG-6" target="3nuBFxr9cyL0pnOWT2aG-7" edge="1">
          <mxGeometry relative="1" as="geometry" />
        </mxCell>
        <mxCell id="cpO45eYIbNJ76o1VQ8K9-22" value="" style="swimlane;connectable=0;startSize=0;html=1;whiteSpace=wrap;collapsible=0;recursiveResize=0;expand=0;" vertex="1" parent="cpO45eYIbNJ76o1VQ8K9-19">
          <mxGeometry x="170" width="800" height="150" as="geometry" />
        </mxCell>
        <mxCell id="cpO45eYIbNJ76o1VQ8K9-23" value="" style="edgeStyle=orthogonalEdgeStyle;rounded=0;orthogonalLoop=1;jettySize=auto;html=1;" edge="1" parent="cpO45eYIbNJ76o1VQ8K9-22" source="cpO45eYIbNJ76o1VQ8K9-24" target="cpO45eYIbNJ76o1VQ8K9-26">
          <mxGeometry relative="1" as="geometry" />
        </mxCell>
        <mxCell id="cpO45eYIbNJ76o1VQ8K9-24" value="Accept&lt;br&gt;payment" style="rounded=0;whiteSpace=wrap;html=1;" vertex="1" parent="cpO45eYIbNJ76o1VQ8K9-22">
          <mxGeometry x="330" y="20" width="90" height="40" as="geometry" />
        </mxCell>
        <mxCell id="cpO45eYIbNJ76o1VQ8K9-25" value="Write details&lt;br&gt;on cup" style="shape=document;whiteSpace=wrap;html=1;boundedLbl=1;" vertex="1" parent="cpO45eYIbNJ76o1VQ8K9-22">
          <mxGeometry x="200" y="10" width="90" height="60" as="geometry" />
        </mxCell>
        <mxCell id="cpO45eYIbNJ76o1VQ8K9-26" value="Make latte" style="shape=process;whiteSpace=wrap;html=1;backgroundOutline=1;" vertex="1" parent="cpO45eYIbNJ76o1VQ8K9-22">
          <mxGeometry x="440" y="20" width="90" height="40" as="geometry" />
        </mxCell>
        <mxCell id="cpO45eYIbNJ76o1VQ8K9-145" style="swimlane;connectable=0;startSize=0;html=1;whiteSpace=wrap;collapsible=0;recursiveResize=0;expand=0;" vertex="1" parent="cpO45eYIbNJ76o1VQ8K9-19">
          <mxGeometry x="970" width="1040" height="150" as="geometry" />
        </mxCell>
        <mxCell id="cpO45eYIbNJ76o1VQ8K9-27" value="" style="swimlane;connectable=0;startSize=0;html=1;whiteSpace=wrap;collapsible=0;recursiveResize=0;expand=0;" vertex="1" parent="cpO45eYIbNJ76o1VQ8K9-19">
          <mxGeometry x="2010" width="140" height="150" as="geometry" />
        </mxCell>
        <mxCell id="cpO45eYIbNJ76o1VQ8K9-29" value="PMO Release Flow" style="rounded=0;whiteSpace=wrap;html=1;" vertex="1" parent="cpO45eYIbNJ76o1VQ8K9-27">
          <mxGeometry x="20" y="50" width="90" height="40" as="geometry" />
        </mxCell>
        <mxCell id="cpO45eYIbNJ76o1VQ8K9-255" style="swimlane;connectable=0;startSize=0;html=1;whiteSpace=wrap;collapsible=0;recursiveResize=0;expand=0;" vertex="1" parent="cpO45eYIbNJ76o1VQ8K9-19">
          <mxGeometry x="2150" width="700" height="150" as="geometry" />
        </mxCell>
        <mxCell id="cpO45eYIbNJ76o1VQ8K9-256" style="swimlane;horizontal=0;points=[[0,0.5],[1,0.5]];portConstraint=eastwest;startSize=40;html=1;whiteSpace=wrap;collapsible=0;recursiveResize=0;expand=0;" vertex="1" parent="3nuBFxr9cyL0pnOWT2aG-1">
          <mxGeometry y="640" width="2850" height="150" as="geometry" />
        </mxCell>
        <mxCell id="cpO45eYIbNJ76o1VQ8K9-257" style="swimlane;connectable=0;startSize=0;html=1;whiteSpace=wrap;collapsible=0;recursiveResize=0;expand=0;" vertex="1" parent="cpO45eYIbNJ76o1VQ8K9-256">
          <mxGeometry x="40" width="130" height="150" as="geometry" />
        </mxCell>
        <mxCell id="cpO45eYIbNJ76o1VQ8K9-258" style="swimlane;connectable=0;startSize=0;html=1;whiteSpace=wrap;collapsible=0;recursiveResize=0;expand=0;" vertex="1" parent="cpO45eYIbNJ76o1VQ8K9-256">
          <mxGeometry x="170" width="800" height="150" as="geometry" />
        </mxCell>
        <mxCell id="cpO45eYIbNJ76o1VQ8K9-259" style="swimlane;connectable=0;startSize=0;html=1;whiteSpace=wrap;collapsible=0;recursiveResize=0;expand=0;" vertex="1" parent="cpO45eYIbNJ76o1VQ8K9-256">
          <mxGeometry x="970" width="1040" height="150" as="geometry" />
        </mxCell>
        <mxCell id="cpO45eYIbNJ76o1VQ8K9-260" style="swimlane;connectable=0;startSize=0;html=1;whiteSpace=wrap;collapsible=0;recursiveResize=0;expand=0;" vertex="1" parent="cpO45eYIbNJ76o1VQ8K9-256">
          <mxGeometry x="2010" width="140" height="150" as="geometry" />
        </mxCell>
        <mxCell id="cpO45eYIbNJ76o1VQ8K9-263" value="Schedule Release Date/Time" style="rounded=0;whiteSpace=wrap;html=1;" vertex="1" parent="cpO45eYIbNJ76o1VQ8K9-260">
          <mxGeometry x="20" y="50" width="90" height="50" as="geometry" />
        </mxCell>
        <mxCell id="cpO45eYIbNJ76o1VQ8K9-261" style="swimlane;connectable=0;startSize=0;html=1;whiteSpace=wrap;collapsible=0;recursiveResize=0;expand=0;" vertex="1" parent="cpO45eYIbNJ76o1VQ8K9-256">
          <mxGeometry x="2150" width="700" height="150" as="geometry" />
        </mxCell>
        <mxCell id="cpO45eYIbNJ76o1VQ8K9-267" value="Manual Validations" style="rounded=0;whiteSpace=wrap;html=1;" vertex="1" parent="cpO45eYIbNJ76o1VQ8K9-261">
          <mxGeometry x="170" y="50" width="90" height="50" as="geometry" />
        </mxCell>
        <mxCell id="cpO45eYIbNJ76o1VQ8K9-72" style="edgeStyle=orthogonalEdgeStyle;rounded=0;orthogonalLoop=1;jettySize=auto;html=1;exitX=0.5;exitY=0;exitDx=0;exitDy=0;entryX=0.5;entryY=1;entryDx=0;entryDy=0;" edge="1" parent="3nuBFxr9cyL0pnOWT2aG-1" source="cpO45eYIbNJ76o1VQ8K9-7" target="3nuBFxr9cyL0pnOWT2aG-10">
          <mxGeometry relative="1" as="geometry" />
        </mxCell>
        <mxCell id="cpO45eYIbNJ76o1VQ8K9-75" style="edgeStyle=orthogonalEdgeStyle;rounded=0;orthogonalLoop=1;jettySize=auto;html=1;exitX=1;exitY=0.5;exitDx=0;exitDy=0;entryX=0;entryY=0.5;entryDx=0;entryDy=0;" edge="1" parent="3nuBFxr9cyL0pnOWT2aG-1" source="cpO45eYIbNJ76o1VQ8K9-7" target="3nuBFxr9cyL0pnOWT2aG-21">
          <mxGeometry relative="1" as="geometry" />
        </mxCell>
        <mxCell id="cpO45eYIbNJ76o1VQ8K9-132" style="edgeStyle=orthogonalEdgeStyle;rounded=0;orthogonalLoop=1;jettySize=auto;html=1;exitX=1;exitY=0.5;exitDx=0;exitDy=0;entryX=0.5;entryY=0;entryDx=0;entryDy=0;dashed=1;" edge="1" parent="3nuBFxr9cyL0pnOWT2aG-1" source="cpO45eYIbNJ76o1VQ8K9-130" target="3nuBFxr9cyL0pnOWT2aG-22">
          <mxGeometry relative="1" as="geometry" />
        </mxCell>
        <mxCell id="cpO45eYIbNJ76o1VQ8K9-135" style="edgeStyle=orthogonalEdgeStyle;rounded=0;orthogonalLoop=1;jettySize=auto;html=1;exitX=1;exitY=0.5;exitDx=0;exitDy=0;entryX=0.5;entryY=1;entryDx=0;entryDy=0;" edge="1" parent="3nuBFxr9cyL0pnOWT2aG-1" source="3nuBFxr9cyL0pnOWT2aG-22" target="cpO45eYIbNJ76o1VQ8K9-133">
          <mxGeometry relative="1" as="geometry" />
        </mxCell>
        <mxCell id="cpO45eYIbNJ76o1VQ8K9-149" style="edgeStyle=orthogonalEdgeStyle;rounded=0;orthogonalLoop=1;jettySize=auto;html=1;exitX=1;exitY=0.5;exitDx=0;exitDy=0;entryX=0.5;entryY=0;entryDx=0;entryDy=0;dashed=1;" edge="1" parent="3nuBFxr9cyL0pnOWT2aG-1" source="cpO45eYIbNJ76o1VQ8K9-133" target="cpO45eYIbNJ76o1VQ8K9-146">
          <mxGeometry relative="1" as="geometry" />
        </mxCell>
        <mxCell id="cpO45eYIbNJ76o1VQ8K9-152" style="edgeStyle=orthogonalEdgeStyle;rounded=0;orthogonalLoop=1;jettySize=auto;html=1;exitX=1;exitY=0.5;exitDx=0;exitDy=0;entryX=0.5;entryY=0;entryDx=0;entryDy=0;" edge="1" parent="3nuBFxr9cyL0pnOWT2aG-1" source="cpO45eYIbNJ76o1VQ8K9-146" target="cpO45eYIbNJ76o1VQ8K9-147">
          <mxGeometry relative="1" as="geometry" />
        </mxCell>
        <mxCell id="cpO45eYIbNJ76o1VQ8K9-159" style="edgeStyle=orthogonalEdgeStyle;rounded=0;orthogonalLoop=1;jettySize=auto;html=1;exitX=0.5;exitY=0;exitDx=0;exitDy=0;entryX=0.5;entryY=0.75;entryDx=0;entryDy=0;entryPerimeter=0;" edge="1" parent="3nuBFxr9cyL0pnOWT2aG-1" source="cpO45eYIbNJ76o1VQ8K9-157" target="cpO45eYIbNJ76o1VQ8K9-156">
          <mxGeometry relative="1" as="geometry" />
        </mxCell>
        <mxCell id="cpO45eYIbNJ76o1VQ8K9-160" style="edgeStyle=orthogonalEdgeStyle;rounded=0;orthogonalLoop=1;jettySize=auto;html=1;exitX=0.5;exitY=0;exitDx=0;exitDy=0;entryX=0.5;entryY=1;entryDx=0;entryDy=0;" edge="1" parent="3nuBFxr9cyL0pnOWT2aG-1" source="cpO45eYIbNJ76o1VQ8K9-157" target="cpO45eYIbNJ76o1VQ8K9-155">
          <mxGeometry relative="1" as="geometry">
            <Array as="points">
              <mxPoint x="1275" y="350" />
              <mxPoint x="1145" y="350" />
            </Array>
          </mxGeometry>
        </mxCell>
        <mxCell id="cpO45eYIbNJ76o1VQ8K9-164" style="edgeStyle=orthogonalEdgeStyle;rounded=0;orthogonalLoop=1;jettySize=auto;html=1;exitX=0.5;exitY=0;exitDx=0;exitDy=0;entryX=0.5;entryY=1;entryDx=0;entryDy=0;dashed=1;" edge="1" parent="3nuBFxr9cyL0pnOWT2aG-1" source="cpO45eYIbNJ76o1VQ8K9-161" target="cpO45eYIbNJ76o1VQ8K9-163">
          <mxGeometry relative="1" as="geometry" />
        </mxCell>
        <mxCell id="cpO45eYIbNJ76o1VQ8K9-243" style="edgeStyle=orthogonalEdgeStyle;rounded=0;orthogonalLoop=1;jettySize=auto;html=1;exitX=0.5;exitY=0;exitDx=0;exitDy=0;entryX=0;entryY=0.5;entryDx=0;entryDy=0;" edge="1" parent="3nuBFxr9cyL0pnOWT2aG-1" source="cpO45eYIbNJ76o1VQ8K9-163" target="cpO45eYIbNJ76o1VQ8K9-242">
          <mxGeometry relative="1" as="geometry" />
        </mxCell>
        <mxCell id="3nuBFxr9cyL0pnOWT2aG-12" style="edgeStyle=orthogonalEdgeStyle;rounded=0;orthogonalLoop=1;jettySize=auto;html=1;entryX=0.5;entryY=0;entryDx=0;entryDy=0;" parent="3nuBFxr9cyL0pnOWT2aG-1" source="3nuBFxr9cyL0pnOWT2aG-13" target="cpO45eYIbNJ76o1VQ8K9-29" edge="1">
          <mxGeometry relative="1" as="geometry">
            <mxPoint x="2075" y="430" as="targetPoint" />
          </mxGeometry>
        </mxCell>
        <mxCell id="cpO45eYIbNJ76o1VQ8K9-245" style="edgeStyle=orthogonalEdgeStyle;rounded=0;orthogonalLoop=1;jettySize=auto;html=1;exitX=1;exitY=0.5;exitDx=0;exitDy=0;" edge="1" parent="3nuBFxr9cyL0pnOWT2aG-1" source="cpO45eYIbNJ76o1VQ8K9-242" target="cpO45eYIbNJ76o1VQ8K9-244">
          <mxGeometry relative="1" as="geometry" />
        </mxCell>
        <mxCell id="cpO45eYIbNJ76o1VQ8K9-248" style="edgeStyle=orthogonalEdgeStyle;rounded=0;orthogonalLoop=1;jettySize=auto;html=1;exitX=0.5;exitY=0;exitDx=0;exitDy=0;entryX=0.5;entryY=1;entryDx=0;entryDy=0;" edge="1" parent="3nuBFxr9cyL0pnOWT2aG-1" source="cpO45eYIbNJ76o1VQ8K9-246" target="cpO45eYIbNJ76o1VQ8K9-249">
          <mxGeometry relative="1" as="geometry" />
        </mxCell>
        <mxCell id="cpO45eYIbNJ76o1VQ8K9-250" style="edgeStyle=orthogonalEdgeStyle;rounded=0;orthogonalLoop=1;jettySize=auto;html=1;exitX=0.5;exitY=0;exitDx=0;exitDy=0;entryX=0;entryY=0.5;entryDx=0;entryDy=0;" edge="1" parent="3nuBFxr9cyL0pnOWT2aG-1" source="cpO45eYIbNJ76o1VQ8K9-249" target="3nuBFxr9cyL0pnOWT2aG-13">
          <mxGeometry relative="1" as="geometry" />
        </mxCell>
        <mxCell id="cpO45eYIbNJ76o1VQ8K9-28" style="edgeStyle=orthogonalEdgeStyle;rounded=0;orthogonalLoop=1;jettySize=auto;html=1;entryX=0.5;entryY=0;entryDx=0;entryDy=0;" edge="1" parent="3nuBFxr9cyL0pnOWT2aG-1" source="cpO45eYIbNJ76o1VQ8K9-29" target="cpO45eYIbNJ76o1VQ8K9-263">
          <mxGeometry relative="1" as="geometry">
            <mxPoint x="2075" y="570" as="targetPoint" />
          </mxGeometry>
        </mxCell>
        <mxCell id="cpO45eYIbNJ76o1VQ8K9-264" style="edgeStyle=orthogonalEdgeStyle;rounded=0;orthogonalLoop=1;jettySize=auto;html=1;exitX=1;exitY=0.5;exitDx=0;exitDy=0;entryX=0.5;entryY=1;entryDx=0;entryDy=0;" edge="1" parent="3nuBFxr9cyL0pnOWT2aG-1" source="cpO45eYIbNJ76o1VQ8K9-263" target="cpO45eYIbNJ76o1VQ8K9-262">
          <mxGeometry relative="1" as="geometry" />
        </mxCell>
        <mxCell id="cpO45eYIbNJ76o1VQ8K9-270" style="edgeStyle=orthogonalEdgeStyle;rounded=0;orthogonalLoop=1;jettySize=auto;html=1;exitX=1;exitY=0.5;exitDx=0;exitDy=0;entryX=0.5;entryY=0;entryDx=0;entryDy=0;" edge="1" parent="3nuBFxr9cyL0pnOWT2aG-1" source="cpO45eYIbNJ76o1VQ8K9-262" target="cpO45eYIbNJ76o1VQ8K9-268">
          <mxGeometry relative="1" as="geometry" />
        </mxCell>
        <mxCell id="cpO45eYIbNJ76o1VQ8K9-271" style="edgeStyle=orthogonalEdgeStyle;rounded=0;orthogonalLoop=1;jettySize=auto;html=1;exitX=1;exitY=1;exitDx=0;exitDy=0;entryX=0.5;entryY=0;entryDx=0;entryDy=0;" edge="1" parent="3nuBFxr9cyL0pnOWT2aG-1" source="cpO45eYIbNJ76o1VQ8K9-262" target="cpO45eYIbNJ76o1VQ8K9-269">
          <mxGeometry relative="1" as="geometry">
            <Array as="points">
              <mxPoint x="2270" y="350" />
              <mxPoint x="2365" y="350" />
            </Array>
          </mxGeometry>
        </mxCell>
        <mxCell id="cpO45eYIbNJ76o1VQ8K9-272" style="edgeStyle=orthogonalEdgeStyle;rounded=0;orthogonalLoop=1;jettySize=auto;html=1;exitX=0.75;exitY=1;exitDx=0;exitDy=0;entryX=0.5;entryY=0;entryDx=0;entryDy=0;" edge="1" parent="3nuBFxr9cyL0pnOWT2aG-1" source="cpO45eYIbNJ76o1VQ8K9-262" target="cpO45eYIbNJ76o1VQ8K9-267">
          <mxGeometry relative="1" as="geometry">
            <Array as="points">
              <mxPoint x="2248" y="570" />
              <mxPoint x="2365" y="570" />
            </Array>
          </mxGeometry>
        </mxCell>
        <mxCell id="cpO45eYIbNJ76o1VQ8K9-274" style="edgeStyle=orthogonalEdgeStyle;rounded=0;orthogonalLoop=1;jettySize=auto;html=1;exitX=1;exitY=0.5;exitDx=0;exitDy=0;entryX=0.75;entryY=1;entryDx=0;entryDy=0;" edge="1" parent="3nuBFxr9cyL0pnOWT2aG-1" source="cpO45eYIbNJ76o1VQ8K9-267" target="cpO45eYIbNJ76o1VQ8K9-273">
          <mxGeometry relative="1" as="geometry" />
        </mxCell>
        <mxCell id="cpO45eYIbNJ76o1VQ8K9-275" style="edgeStyle=orthogonalEdgeStyle;rounded=0;orthogonalLoop=1;jettySize=auto;html=1;exitX=1;exitY=0.5;exitDx=0;exitDy=0;entryX=0.5;entryY=1;entryDx=0;entryDy=0;" edge="1" parent="3nuBFxr9cyL0pnOWT2aG-1" source="cpO45eYIbNJ76o1VQ8K9-269" target="cpO45eYIbNJ76o1VQ8K9-273">
          <mxGeometry relative="1" as="geometry" />
        </mxCell>
        <mxCell id="cpO45eYIbNJ76o1VQ8K9-276" style="edgeStyle=orthogonalEdgeStyle;rounded=0;orthogonalLoop=1;jettySize=auto;html=1;exitX=1;exitY=0.5;exitDx=0;exitDy=0;entryX=0.25;entryY=1;entryDx=0;entryDy=0;" edge="1" parent="3nuBFxr9cyL0pnOWT2aG-1" source="cpO45eYIbNJ76o1VQ8K9-268" target="cpO45eYIbNJ76o1VQ8K9-273">
          <mxGeometry relative="1" as="geometry" />
        </mxCell>
        <mxCell id="cpO45eYIbNJ76o1VQ8K9-74" value="" style="edgeStyle=orthogonalEdgeStyle;rounded=0;orthogonalLoop=1;jettySize=auto;html=1;" edge="1" parent="1" source="cpO45eYIbNJ76o1VQ8K9-6">
          <mxGeometry relative="1" as="geometry">
            <mxPoint x="530" y="400" as="targetPoint" />
          </mxGeometry>
        </mxCell>
        <mxCell id="cpO45eYIbNJ76o1VQ8K9-280" value="End" style="rounded=1;whiteSpace=wrap;html=1;arcSize=50;" vertex="1" parent="1">
          <mxGeometry x="2600" y="195" width="90" height="40" as="geometry" />
        </mxCell>
        <mxCell id="cpO45eYIbNJ76o1VQ8K9-281" style="edgeStyle=orthogonalEdgeStyle;rounded=0;orthogonalLoop=1;jettySize=auto;html=1;exitX=1;exitY=0.5;exitDx=0;exitDy=0;entryX=0;entryY=0.5;entryDx=0;entryDy=0;dashed=1;" edge="1" parent="1" source="cpO45eYIbNJ76o1VQ8K9-277" target="cpO45eYIbNJ76o1VQ8K9-280">
          <mxGeometry relative="1" as="geometry" />
        </mxCell>
      </root>
    </mxGraphModel>
  </diagram>
</mxfile>
